<?xml version="1.0" encoding="utf-8"?>
<!-- Generator: Adobe Illustrator 18.0.0, SVG Export Plug-In . SVG Version: 6.00 Build 0)  -->
<!DOCTYPE svg PUBLIC "-//W3C//DTD SVG 1.1//EN" "http://www.w3.org/Graphics/SVG/1.1/DTD/svg11.dtd">
<svg version="1.1" id="Layer_1" xmlns="http://www.w3.org/2000/svg" xmlns:xlink="http://www.w3.org/1999/xlink" x="0px" y="0px"
	 viewBox="0 0 743.7 678.5" enable-background="new 0 0 743.7 678.5" xml:space="preserve">
<g>
	<g>
		<g>
			<path fill="#00BC8C" d="M712.8,301.6c-18-14.8-40.2-21.7-66.4-20.8l-11.1,1.2l-12.5,2.1L610,287l-13,3.5l-13.3,4.1l-3.1,1.1
				c-18,6.7-40.2,16.2-66.5,28.6L378,0L172.8,447.6l-13.8,30l2.6,0.6l12.8,1.7l13.2,0.8l13.5,0l13.8-0.8l14.1-1.5l14.4-2.2l11.7-2.3
				l2.9-0.6l14.8-3.6l15-4.2l15.2-4.8l15.4-5.4l15.5-5.9l15.6-6.4l15.8-6.8l15.8-7.3l15.9-7.7l15.9-8.1c13-6.8,26.1-13.6,39.1-20.3
				c6.2-3.2,12.4-6.5,18.6-9.7l13.7-7l13.4-6.8l13.2-6.4l12.9-6.1l3.1-1.4l9.6-4.4l12.4-5.4l12.2-5l12-4.5l11.8-4.1l11.6-3.5
				l11.5-3.1l11.3-2.5l11.2-1.9l11-1.3l10.9-0.6l10.8,0.1l10.7,0.8l10.6,1.5l10.5,2.3l10.4,3.2l10.4,3.9l10.4,4.8l10.3,5.8l6.9,4.5
				C738.1,328.7,727.8,313.9,712.8,301.6z M390.9,384.5l-13.7,6.7l-14.8,6.8l-14.6,6.5l-14.6,6.1l-14.4,5.7l-8.7,3.2
				c-5.7,2.6-10.6,4.6-14.5,6.1c-7.8,3.1-15.4,5.8-22.9,8.3L376,199.3L439.7,361C422.2,369.7,405.9,377.6,390.9,384.5z"/>
			<path fill="#00BC8C" d="M545.8,408.1l-13.4-31.9c-21.2,8.9-46.6,20.6-76.1,35.1c-9.1,4.5-18.6,9.2-28.5,14.2
				c-22.7,11.5-43.2,21.5-62,30.2l-13.7,6.7l-14.7,6.8l-14.6,6.4l-14.6,6.1l-14.4,5.7l-8.7,3.2c-5.7,2.5-10.6,4.6-14.5,6.1
				c-8.9,3.6-17.6,6.7-26,9.4c-38.1,12.3-71.6,16.4-100.4,12.3h0c-27.4-4.2-51.5-14.4-72.4-30.6l-0.4-0.3l-1-0.7
				c-0.6-0.5-1.1-0.9-1.7-1.3c-0.4-0.3-0.8-0.6-1.1-0.9l-5.4-4.3l-8.7-8.3l-8.2-9.3l-2.2-2.9C26,444.3,3.8,392.4,0,388.6l7.5,29.2
				l5.5,17.1l6.1,15.7l6.7,14.5l7.4,13.2l8,12l8.6,10.9l9.1,9.7l9.7,8.6l10.2,7.5l10.7,6.5l11.2,5.5l11.6,4.5l12,3.5l6.2,1.3
				L70.7,678.5h98l58.4-132.8l5.9-1.2l14.9-3.6l15-4.2l15.2-4.9l15.4-5.4l15.5-5.9l15.6-6.4l15.8-6.8l15.8-7.3l15.9-7.7l15.9-8.1
				c19.2-10,38.4-20,57.7-30l13.7-7l9.3-4.6l93,235.9h97.6L545.8,408.1z"/>
		</g>
	</g>
</g>
</svg>
